<mxfile host="app.diagrams.net" agent="Mozilla/5.0 (X11; Linux x86_64) AppleWebKit/537.36 (KHTML, like Gecko) Chrome/131.0.0.0 Safari/537.36" version="25.0.3">
  <diagram name="Page-1" id="qD1eRNOVxsVuLoxg1x4V">
    <mxGraphModel dx="1434" dy="794" grid="1" gridSize="10" guides="1" tooltips="1" connect="1" arrows="1" fold="1" page="1" pageScale="1" pageWidth="850" pageHeight="1100" math="0" shadow="0">
      <root>
        <mxCell id="0" />
        <mxCell id="1" parent="0" />
        <mxCell id="UN4usqf_0uwK_2TTzqlM-7" value="" style="edgeStyle=orthogonalEdgeStyle;rounded=0;orthogonalLoop=1;jettySize=auto;html=1;entryX=0;entryY=0.5;entryDx=0;entryDy=0;" edge="1" parent="1" source="UN4usqf_0uwK_2TTzqlM-1" target="UN4usqf_0uwK_2TTzqlM-5">
          <mxGeometry relative="1" as="geometry">
            <mxPoint x="115" y="100" as="targetPoint" />
          </mxGeometry>
        </mxCell>
        <mxCell id="UN4usqf_0uwK_2TTzqlM-12" style="edgeStyle=orthogonalEdgeStyle;rounded=0;orthogonalLoop=1;jettySize=auto;html=1;entryX=0;entryY=0.5;entryDx=0;entryDy=0;" edge="1" parent="1" source="UN4usqf_0uwK_2TTzqlM-1" target="UN4usqf_0uwK_2TTzqlM-10">
          <mxGeometry relative="1" as="geometry" />
        </mxCell>
        <mxCell id="UN4usqf_0uwK_2TTzqlM-14" style="edgeStyle=orthogonalEdgeStyle;rounded=0;orthogonalLoop=1;jettySize=auto;html=1;entryX=0;entryY=0.5;entryDx=0;entryDy=0;" edge="1" parent="1" source="UN4usqf_0uwK_2TTzqlM-1" target="UN4usqf_0uwK_2TTzqlM-11">
          <mxGeometry relative="1" as="geometry" />
        </mxCell>
        <mxCell id="UN4usqf_0uwK_2TTzqlM-1" value="User" style="shape=umlActor;verticalLabelPosition=bottom;verticalAlign=top;html=1;outlineConnect=0;" vertex="1" parent="1">
          <mxGeometry x="30" y="220" width="30" height="60" as="geometry" />
        </mxCell>
        <mxCell id="UN4usqf_0uwK_2TTzqlM-2" value="" style="swimlane;startSize=0;" vertex="1" parent="1">
          <mxGeometry x="180" y="20" width="490" height="630" as="geometry" />
        </mxCell>
        <mxCell id="UN4usqf_0uwK_2TTzqlM-5" value="Register/Login" style="ellipse;whiteSpace=wrap;html=1;" vertex="1" parent="UN4usqf_0uwK_2TTzqlM-2">
          <mxGeometry x="30" y="20" width="120" height="80" as="geometry" />
        </mxCell>
        <mxCell id="UN4usqf_0uwK_2TTzqlM-11" value="Upload CV" style="ellipse;whiteSpace=wrap;html=1;" vertex="1" parent="UN4usqf_0uwK_2TTzqlM-2">
          <mxGeometry x="30" y="230" width="120" height="80" as="geometry" />
        </mxCell>
        <mxCell id="UN4usqf_0uwK_2TTzqlM-10" value="Logout" style="ellipse;whiteSpace=wrap;html=1;" vertex="1" parent="UN4usqf_0uwK_2TTzqlM-2">
          <mxGeometry x="30" y="120" width="120" height="80" as="geometry" />
        </mxCell>
        <mxCell id="UN4usqf_0uwK_2TTzqlM-9" value="Upload Job Description" style="ellipse;whiteSpace=wrap;html=1;" vertex="1" parent="UN4usqf_0uwK_2TTzqlM-2">
          <mxGeometry x="30" y="340" width="130" height="80" as="geometry" />
        </mxCell>
        <mxCell id="UN4usqf_0uwK_2TTzqlM-17" value="Analyze CV" style="ellipse;whiteSpace=wrap;html=1;" vertex="1" parent="UN4usqf_0uwK_2TTzqlM-2">
          <mxGeometry x="340" y="20" width="120" height="80" as="geometry" />
        </mxCell>
        <mxCell id="UN4usqf_0uwK_2TTzqlM-20" value="Generate&lt;div&gt;Compatibility&lt;/div&gt;&lt;div&gt;Score&lt;/div&gt;" style="ellipse;whiteSpace=wrap;html=1;" vertex="1" parent="UN4usqf_0uwK_2TTzqlM-2">
          <mxGeometry x="340" y="130" width="120" height="80" as="geometry" />
        </mxCell>
        <mxCell id="UN4usqf_0uwK_2TTzqlM-19" value="Provide&lt;div&gt;Improvements&amp;nbsp;&lt;/div&gt;&lt;div&gt;Suggestions&lt;/div&gt;" style="ellipse;whiteSpace=wrap;html=1;" vertex="1" parent="UN4usqf_0uwK_2TTzqlM-2">
          <mxGeometry x="340" y="230" width="120" height="80" as="geometry" />
        </mxCell>
        <mxCell id="UN4usqf_0uwK_2TTzqlM-15" style="edgeStyle=orthogonalEdgeStyle;rounded=0;orthogonalLoop=1;jettySize=auto;html=1;entryX=-0.008;entryY=0.663;entryDx=0;entryDy=0;entryPerimeter=0;" edge="1" parent="1" source="UN4usqf_0uwK_2TTzqlM-1" target="UN4usqf_0uwK_2TTzqlM-9">
          <mxGeometry relative="1" as="geometry">
            <Array as="points">
              <mxPoint x="135" y="250" />
              <mxPoint x="135" y="400" />
              <mxPoint x="209" y="400" />
            </Array>
          </mxGeometry>
        </mxCell>
        <mxCell id="UN4usqf_0uwK_2TTzqlM-21" style="edgeStyle=orthogonalEdgeStyle;rounded=0;orthogonalLoop=1;jettySize=auto;html=1;exitX=0.5;exitY=0.5;exitDx=0;exitDy=0;exitPerimeter=0;entryX=1;entryY=0.5;entryDx=0;entryDy=0;" edge="1" parent="1" source="UN4usqf_0uwK_2TTzqlM-16" target="UN4usqf_0uwK_2TTzqlM-17">
          <mxGeometry relative="1" as="geometry" />
        </mxCell>
        <mxCell id="UN4usqf_0uwK_2TTzqlM-22" style="edgeStyle=orthogonalEdgeStyle;rounded=0;orthogonalLoop=1;jettySize=auto;html=1;" edge="1" parent="1" source="UN4usqf_0uwK_2TTzqlM-16" target="UN4usqf_0uwK_2TTzqlM-20">
          <mxGeometry relative="1" as="geometry" />
        </mxCell>
        <mxCell id="UN4usqf_0uwK_2TTzqlM-23" style="edgeStyle=orthogonalEdgeStyle;rounded=0;orthogonalLoop=1;jettySize=auto;html=1;" edge="1" parent="1" source="UN4usqf_0uwK_2TTzqlM-16" target="UN4usqf_0uwK_2TTzqlM-19">
          <mxGeometry relative="1" as="geometry" />
        </mxCell>
        <mxCell id="UN4usqf_0uwK_2TTzqlM-16" value="ATS System" style="shape=umlActor;verticalLabelPosition=bottom;verticalAlign=top;html=1;outlineConnect=0;" vertex="1" parent="1">
          <mxGeometry x="830" y="220" width="30" height="60" as="geometry" />
        </mxCell>
      </root>
    </mxGraphModel>
  </diagram>
</mxfile>
